<?xml version="1.0" encoding="UTF-8" standalone="no"?>
<!-- Created with Inkscape (http://www.inkscape.org/) -->

<svg
   xmlns:dc="http://purl.org/dc/elements/1.1/"
   xmlns:cc="http://creativecommons.org/ns#"
   xmlns:rdf="http://www.w3.org/1999/02/22-rdf-syntax-ns#"
   xmlns:svg="http://www.w3.org/2000/svg"
   xmlns="http://www.w3.org/2000/svg"
   xmlns:sodipodi="http://sodipodi.sourceforge.net/DTD/sodipodi-0.dtd"
   xmlns:inkscape="http://www.inkscape.org/namespaces/inkscape"
   version="1.1"
   id="svg29"
   xml:space="preserve"
   width="193.89333"
   height="193.89333"
   viewBox="0 0 193.89333 193.89333"
   sodipodi:docname="itlogo.svg"
   inkscape:version="0.92.1 r"><metadata
     id="metadata35"><rdf:RDF><cc:Work
         rdf:about=""><dc:format>image/svg+xml</dc:format><dc:type
           rdf:resource="http://purl.org/dc/dcmitype/StillImage" /><dc:title></dc:title></cc:Work></rdf:RDF></metadata><defs
     id="defs33" /><sodipodi:namedview
     pagecolor="#ffffff"
     bordercolor="#666666"
     borderopacity="1"
     objecttolerance="10"
     gridtolerance="10"
     guidetolerance="10"
     inkscape:pageopacity="0"
     inkscape:pageshadow="2"
     inkscape:window-width="2556"
     inkscape:window-height="1396"
     id="namedview31"
     showgrid="false"
     inkscape:zoom="6.0961356"
     inkscape:cx="96.946663"
     inkscape:cy="96.946663"
     inkscape:window-x="0"
     inkscape:window-y="40"
     inkscape:window-maximized="0"
     inkscape:current-layer="g37" /><g
     id="g37"
     inkscape:groupmode="layer"
     inkscape:label="ink_ext_XXXXXX"
     transform="matrix(1.3333333,0,0,-1.3333333,0,193.89333)"><g
       id="g39"
       transform="scale(0.1)"><path
         d="m 765.422,1295.65 c -12.688,0.85 -25.434,1.43 -38.332,1.43 -61.36,0 -120.402,-9.81 -175.781,-27.74 4.578,-12.5 7.207,-25.92 7.207,-40 0,-64.29 -52.11,-116.4 -116.395,-116.4 -36.449,0 -68.949,16.78 -90.293,43 -33.137,-29.03 -62.855,-61.8 -88.527,-97.71 h 502.121 z m 237.108,-69.52 v -167.9 h 188.35 c -49.38,69.04 -113.7,126.61 -188.35,167.9 z m 222.98,-222.5 H 1002.53 V 538.055 c 0,0 -11.514,-114.961 114.95,-114.961 h 91.69 c 55.6,88.008 87.92,192.199 87.92,303.988 0,100.367 -26.04,194.629 -71.58,276.548 z M 765.422,538.055 c 0,0 0,232.777 0,349.172 0,116.403 -116.387,116.403 -116.387,116.403 h -77.59 V 538.055 C 571.445,421.66 687.832,421.66 687.832,421.66 V 344.797 H 304.328 C 408.625,229.52 559.395,157.082 727.09,157.082 c 167.695,0 318.46,72.438 422.75,187.715 h -32.36 c 0,0 -352.058,-20.266 -352.058,193.258 z M 338.664,887.227 c 0,100.164 -86.144,114.123 -110.18,116.063 -45.437,-81.833 -71.394,-175.966 -71.394,-276.208 0,-111.699 32.254,-215.805 87.773,-303.762 93.739,14.032 93.801,114.735 93.801,114.735 0,0 0,232.777 0,349.172"
         style="fill:#1cb6e8;fill-opacity:1;fill-rule:nonzero;stroke:none"
         id="path41"
         inkscape:connector-curvature="0" /><path
         d="m 765.422,1295.65 c -12.688,0.85 -25.434,1.43 -38.332,1.43 -61.36,0 -120.402,-9.81 -175.781,-27.74 4.578,-12.5 7.207,-25.92 7.207,-40 0,-64.29 -52.11,-116.4 -116.395,-116.4 -36.449,0 -68.949,16.78 -90.293,43 -33.137,-29.03 -62.855,-61.8 -88.527,-97.71 h 502.121 z m 237.108,-69.52 v -167.9 h 188.35 c -49.38,69.04 -113.7,126.61 -188.35,167.9 z m 222.98,-222.5 H 1002.53 V 538.055 c 0,0 -11.514,-114.961 114.95,-114.961 h 91.69 c 55.6,88.008 87.92,192.199 87.92,303.988 0,100.367 -26.04,194.629 -71.58,276.548 z M 765.422,538.055 c 0,0 0,232.777 0,349.172 0,116.403 -116.387,116.403 -116.387,116.403 h -77.59 V 538.055 C 571.445,421.66 687.832,421.66 687.832,421.66 V 344.797 H 304.328 C 408.625,229.52 559.395,157.082 727.09,157.082 c 167.695,0 318.46,72.438 422.75,187.715 h -32.36 c 0,0 -352.058,-20.266 -352.058,193.258 z M 338.664,887.227 c 0,100.164 -86.144,114.123 -110.18,116.063 -45.437,-81.833 -71.394,-175.966 -71.394,-276.208 0,-111.699 32.254,-215.805 87.773,-303.762 93.739,14.032 93.801,114.735 93.801,114.735 0,0 0,232.777 0,349.172 z"
         style="fill:none;stroke:#231f20;stroke-width:10;stroke-linecap:butt;stroke-linejoin:miter;stroke-miterlimit:4;stroke-dasharray:none;stroke-opacity:1"
         id="path43"
         inkscape:connector-curvature="0" /><path
         d="m 765.422,1295.65 c -12.688,0.85 -25.434,1.43 -38.332,1.43 -61.36,0 -120.402,-9.81 -175.781,-27.74 4.578,-12.5 7.207,-25.92 7.207,-40 0,-64.29 -52.11,-116.4 -116.395,-116.4 -36.449,0 -68.949,16.78 -90.293,43 -33.137,-29.03 -62.855,-61.8 -88.527,-97.71 h 502.121 z m 237.108,-69.52 v -167.9 h 188.35 c -49.38,69.04 -113.7,126.61 -188.35,167.9 z m 222.98,-222.5 H 1002.53 V 538.055 c 0,0 -11.514,-114.961 114.95,-114.961 h 91.69 c 55.6,88.008 87.92,192.199 87.92,303.988 0,100.367 -26.04,194.629 -71.58,276.548 z M 765.422,538.055 c 0,0 0,232.777 0,349.172 0,116.403 -116.387,116.403 -116.387,116.403 h -77.59 V 538.055 C 571.445,421.66 687.832,421.66 687.832,421.66 V 344.797 H 304.328 C 408.625,229.52 559.395,157.082 727.09,157.082 c 167.695,0 318.46,72.438 422.75,187.715 h -32.36 c 0,0 -352.058,-20.266 -352.058,193.258 z M 338.664,887.227 c 0,100.164 -86.144,114.123 -110.18,116.063 -45.437,-81.833 -71.394,-175.966 -71.394,-276.208 0,-111.699 32.254,-215.805 87.773,-303.762 93.739,14.032 93.801,114.735 93.801,114.735 0,0 0,232.777 0,349.172"
         style="fill:#1cb6e8;fill-opacity:1;fill-rule:nonzero;stroke:none"
         id="path45"
         inkscape:connector-curvature="0" /><path
         d="m 765.422,1295.65 c -12.688,0.85 -25.434,1.43 -38.332,1.43 -61.36,0 -120.402,-9.81 -175.781,-27.74 4.578,-12.5 7.207,-25.92 7.207,-40 0,-64.29 -52.11,-116.4 -116.395,-116.4 -36.449,0 -68.949,16.78 -90.293,43 -33.137,-29.03 -62.855,-61.8 -88.527,-97.71 h 502.121 z m 237.108,-69.52 v -167.9 h 188.35 c -49.38,69.04 -113.7,126.61 -188.35,167.9 z m 222.98,-222.5 H 1002.53 V 538.055 c 0,0 -11.514,-114.961 114.95,-114.961 h 91.69 c 55.6,88.008 87.92,192.199 87.92,303.988 0,100.367 -26.04,194.629 -71.58,276.548 z M 765.422,538.055 c 0,0 0,232.777 0,349.172 0,116.403 -116.387,116.403 -116.387,116.403 h -77.59 V 538.055 C 571.445,421.66 687.832,421.66 687.832,421.66 V 344.797 H 304.328 C 408.625,229.52 559.395,157.082 727.09,157.082 c 167.695,0 318.46,72.438 422.75,187.715 h -32.36 c 0,0 -352.058,-20.266 -352.058,193.258 z M 338.664,887.227 c 0,100.164 -86.144,114.123 -110.18,116.063 -45.437,-81.833 -71.394,-175.966 -71.394,-276.208 0,-111.699 32.254,-215.805 87.773,-303.762 93.739,14.032 93.801,114.735 93.801,114.735 0,0 0,232.777 0,349.172 z"
         style="fill:none;stroke:#231f20;stroke-width:30;stroke-linecap:butt;stroke-linejoin:miter;stroke-miterlimit:4;stroke-dasharray:none;stroke-opacity:1"
         id="path47"
         inkscape:connector-curvature="0" /><path
         d="m 58.7305,673.438 10.5508,1.257 2.1757,-18.308 50.27,5.965 1.511,-12.723 -50.2692,-5.969 2.1718,-18.308 -10.5508,-1.25 -5.8593,49.336"
         style="fill:#231f20;fill-opacity:1;fill-rule:nonzero;stroke:none"
         id="path49"
         inkscape:connector-curvature="0" /><path
         d="m 67.5938,734.863 0.7382,-31.554 12.961,0.304 -0.6719,28.899 10.6172,0.242 0.6758,-28.899 15.7769,0.372 -0.773,33.117 10.934,0.254 1.07,-45.618 -61.2384,-1.425 -1.0234,44.054 10.9336,0.254"
         style="fill:#231f20;fill-opacity:1;fill-rule:nonzero;stroke:none"
         id="path51"
         inkscape:connector-curvature="0" /><path
         d="m 57.2227,756.863 0.9921,12.461 25.1875,-2.004 -23.3085,25.625 1.3085,16.45 23.1172,-27.051 38.0395,23.476 -1.305,-16.367 -28.1681,-16.699 5.7618,-6.66 20.4183,-1.625 -0.989,-12.461 -61.0543,4.855"
         style="fill:#231f20;fill-opacity:1;fill-rule:nonzero;stroke:none"
         id="path53"
         inkscape:connector-curvature="0" /><path
         d="m 64.0664,827.555 2.4727,13.105 46.1209,15.574 -41.703,7.864 2.2032,11.664 60.1838,-11.344 -2.352,-12.508 -46.9881,-16.031 42.4531,-8.004 -2.199,-11.668 -60.1916,11.348"
         style="fill:#231f20;fill-opacity:1;fill-rule:nonzero;stroke:none"
         id="path55"
         inkscape:connector-curvature="0" /><path
         d="m 145.492,926.395 c 3.199,-5.805 3.512,-12.883 0.953,-21.239 -2.558,-8.351 -6.785,-14.039 -12.687,-17.054 -7.391,-4.215 -16.332,-4.715 -26.824,-1.497 -10.7074,3.282 -17.8324,8.704 -21.3871,16.266 -3.1953,5.805 -3.5039,12.887 -0.9492,21.238 2.5625,8.352 6.789,14.039 12.6875,17.063 7.1718,4.25 16.1098,4.734 26.8168,1.457 10.492,-3.219 17.621,-8.629 21.39,-16.234 z m -11.304,-4.903 c -2.68,3.918 -7.293,6.875 -13.84,8.883 -6.52,2 -12,2.129 -16.426,0.391 -4.4298,-1.735 -7.379,-5.008 -8.8556,-9.821 -1.4726,-4.812 -0.8711,-9.195 1.793,-13.152 2.6719,-3.949 7.2816,-6.934 13.8286,-8.941 6.542,-2 12.031,-2.118 16.46,-0.336 4.422,1.777 7.379,5.074 8.852,9.886 1.477,4.813 0.871,9.176 -1.812,13.09"
         style="fill:#231f20;fill-opacity:1;fill-rule:nonzero;stroke:none"
         id="path57"
         inkscape:connector-curvature="0" /><path
         d="m 102.129,969.672 4.996,11.801 46.328,-19.618 11.82,27.911 10.075,-4.262 -16.817,-39.711 -56.402,23.879"
         style="fill:#231f20;fill-opacity:1;fill-rule:nonzero;stroke:none"
         id="path59"
         inkscape:connector-curvature="0" /><path
         d="m 198.438,1040.65 c 1.937,-6.33 0.804,-13.33 -3.411,-20.98 -4.207,-7.65 -9.504,-12.36 -15.894,-14.11 -8.098,-2.61 -16.949,-1.28 -26.57,4.01 -9.809,5.4 -15.68,12.16 -17.61,20.29 -1.945,6.34 -0.808,13.33 3.402,20.98 4.208,7.66 9.512,12.36 15.903,14.12 7.887,2.7 16.734,1.34 26.543,-4.05 9.621,-5.29 15.496,-12.04 17.637,-20.26 z m -12.071,-2.49 c -1.824,4.38 -5.738,8.22 -11.738,11.52 -5.977,3.29 -11.309,4.53 -15.996,3.74 -4.692,-0.8 -8.246,-3.4 -10.672,-7.81 -2.43,-4.41 -2.738,-8.82 -0.93,-13.23 1.809,-4.43 5.707,-8.28 11.707,-11.58 5.996,-3.3 11.352,-4.53 16.047,-3.69 4.695,0.84 8.258,3.46 10.684,7.87 2.426,4.41 2.722,8.81 0.898,13.18"
         style="fill:#231f20;fill-opacity:1;fill-rule:nonzero;stroke:none"
         id="path61"
         inkscape:connector-curvature="0" /><path
         d="m 204.746,1115.54 c -3.976,1.63 -7.73,1.4 -11.262,-0.7 -1.957,-1.19 -3.679,-2.83 -5.164,-4.92 -2.836,-4.02 -3.66,-8.38 -2.465,-13.1 1.192,-4.72 4.825,-9.22 10.887,-13.52 6.11,-4.33 11.422,-5.99 15.938,-5 4.515,1 8.035,3.28 10.558,6.84 2.469,3.49 3.5,7.06 3.078,10.7 -0.414,3.65 -2.054,6.87 -4.925,9.68 l -8.239,-11.63 -8.285,5.87 14.719,20.78 26.777,-18.96 -4.879,-6.88 -6.925,3.46 c 0.945,-3.68 1.324,-6.67 1.16,-8.95 -0.27,-3.95 -1.824,-7.94 -4.664,-11.95 -4.688,-6.62 -10.809,-10.42 -18.375,-11.41 -7.715,-1.15 -15.555,1.1 -23.532,6.75 -8.062,5.7 -12.96,12.51 -14.679,20.39 -1.719,7.89 0.004,15.48 5.179,22.79 4.485,6.33 9.692,10.28 15.625,11.86 5.934,1.57 11.5,0.93 16.696,-1.9 l -7.223,-10.2"
         style="fill:#231f20;fill-opacity:1;fill-rule:nonzero;stroke:none"
         id="path63"
         inkscape:connector-curvature="0" /><path
         d="m 248.91,1133.95 c 2.344,-1.55 4.41,-2.36 6.195,-2.41 3.258,-0.1 6.567,1.75 9.918,5.54 2.008,2.27 3.391,4.34 4.149,6.19 1.43,3.53 0.851,6.43 -1.727,8.71 -1.507,1.32 -3.257,1.7 -5.25,1.11 -1.972,-0.61 -4.527,-2.08 -7.679,-4.4 l -5.407,-3.93 c -5.316,-3.87 -9.425,-6.17 -12.332,-6.91 -4.886,-1.28 -9.57,0.06 -14.058,4.03 -4.09,3.61 -6.156,8.12 -6.199,13.53 -0.047,5.41 2.515,11.03 7.679,16.88 4.309,4.87 9.266,7.9 14.867,9.08 5.606,1.18 10.918,-0.29 15.938,-4.43 l -8.172,-9.24 c -2.906,2.26 -5.945,2.77 -9.113,1.52 -2.11,-0.84 -4.16,-2.38 -6.153,-4.63 -2.211,-2.52 -3.48,-4.95 -3.812,-7.32 -0.328,-2.38 0.398,-4.35 2.176,-5.92 1.636,-1.44 3.508,-1.78 5.617,-1.02 1.371,0.47 3.785,1.93 7.226,4.37 l 8.942,6.32 c 3.914,2.77 7.344,4.43 10.281,4.96 4.563,0.82 8.879,-0.56 12.949,-4.16 4.18,-3.69 6.227,-8.37 6.141,-14.03 -0.09,-5.66 -2.731,-11.43 -7.926,-17.31 -5.312,-6.01 -10.851,-9.53 -16.617,-10.56 -5.766,-1.03 -11.035,0.56 -15.805,4.78 l 8.172,9.25"
         style="fill:#231f20;fill-opacity:1;fill-rule:nonzero;stroke:none"
         id="path65"
         inkscape:connector-curvature="0" /><path
         d="m 295.82,1226.17 -23.144,-21.46 8.812,-9.51 21.203,19.65 7.223,-7.79 -21.199,-19.65 10.726,-11.57 24.293,22.52 7.438,-8.03 -33.461,-31.01 -41.637,44.91 32.309,29.96 7.437,-8.02"
         style="fill:#231f20;fill-opacity:1;fill-rule:nonzero;stroke:none"
         id="path67"
         inkscape:connector-curvature="0" /><path
         d="m 305.465,1248.55 9.996,7.5 15.172,-20.21 3.777,34.44 13.192,9.9 -4.969,-35.23 42.777,-12.97 -13.129,-9.85 -31.168,10.05 -1.175,-8.72 12.296,-16.39 -9.992,-7.5 -36.777,48.98"
         style="fill:#231f20;fill-opacity:1;fill-rule:nonzero;stroke:none"
         id="path69"
         inkscape:connector-curvature="0" /><path
         d="m 401,1313.04 5.504,-9.08 -15.774,-9.56 26.235,-43.3 -10.957,-6.64 -26.235,43.3 -15.765,-9.55 -5.508,9.09 42.5,25.74"
         style="fill:#231f20;fill-opacity:1;fill-rule:nonzero;stroke:none"
         id="path71"
         inkscape:connector-curvature="0" /><path
         d="m 454.141,1271.34 -11.395,-5.85 -27.976,54.49 11.402,5.84 27.969,-54.48"
         style="fill:#231f20;fill-opacity:1;fill-rule:nonzero;stroke:none"
         id="path73"
         inkscape:connector-curvature="0" /><path
         d="m 509.555,1301.98 c -2.434,-6.16 -7.692,-10.92 -15.75,-14.27 -8.067,-3.36 -15.149,-3.73 -21.231,-1.11 -7.961,3 -14.051,9.57 -18.261,19.7 -4.305,10.34 -4.676,19.29 -1.114,26.85 2.434,6.16 7.684,10.92 15.75,14.28 8.067,3.35 15.141,3.72 21.231,1.11 7.847,-2.82 13.922,-9.39 18.222,-19.73 4.219,-10.13 4.602,-19.08 1.153,-26.83 z m -10.992,5.58 c 1.304,4.57 0.648,10.01 -1.985,16.33 -2.621,6.29 -6.012,10.6 -10.172,12.9 -4.164,2.3 -8.57,2.49 -13.218,0.55 -4.649,-1.93 -7.641,-5.19 -8.985,-9.77 -1.336,-4.57 -0.691,-10.03 1.934,-16.34 2.633,-6.33 6.047,-10.62 10.242,-12.9 4.191,-2.28 8.609,-2.45 13.258,-0.51 4.652,1.94 7.625,5.18 8.926,9.74"
         style="fill:#231f20;fill-opacity:1;fill-rule:nonzero;stroke:none"
         id="path75"
         inkscape:connector-curvature="0" /><path
         d="m 515.465,1363.25 12.801,3.75 34.804,-34.03 -11.914,40.73 11.399,3.33 17.195,-58.78 -12.215,-3.58 -35.605,34.6 12.133,-41.47 -11.395,-3.33 -17.203,58.78"
         style="fill:#231f20;fill-opacity:1;fill-rule:nonzero;stroke:none"
         id="path77"
         inkscape:connector-curvature="0" /><path
         d="m 629.828,1379.32 -31.035,-5.73 2.355,-12.75 28.426,5.25 1.93,-10.45 -28.426,-5.25 2.863,-15.51 32.575,6.01 1.988,-10.76 -44.871,-8.28 -11.117,60.23 43.332,8 1.98,-10.76"
         style="fill:#231f20;fill-opacity:1;fill-rule:nonzero;stroke:none"
         id="path79"
         inkscape:connector-curvature="0" /><path
         d="m 649.57,1393.03 13.297,1.07 27.18,-40.39 -3.406,42.31 11.836,0.95 4.918,-61.05 -12.688,-1.02 -27.852,41.09 3.473,-43.06 -11.836,-0.95 -4.922,61.05"
         style="fill:#231f20;fill-opacity:1;fill-rule:nonzero;stroke:none"
         id="path81"
         inkscape:connector-curvature="0" /><path
         d="m 760.027,1335.08 -12.8,0.55 2.617,61.19 12.801,-0.55 -2.618,-61.19"
         style="fill:#231f20;fill-opacity:1;fill-rule:nonzero;stroke:none"
         id="path83"
         inkscape:connector-curvature="0" /><path
         d="m 783.172,1395.29 13.246,-1.59 18.629,-44.97 5.051,42.13 11.785,-1.41 -7.285,-60.82 -12.633,1.51 -19.152,45.81 -5.137,-42.89 -11.789,1.41 7.285,60.82"
         style="fill:#231f20;fill-opacity:1;fill-rule:nonzero;stroke:none"
         id="path85"
         inkscape:connector-curvature="0" /><path
         d="m 853.438,1385.35 42.402,-9.42 -2.305,-10.38 -29.894,6.65 -3.086,-13.88 26.234,-5.83 -2.309,-10.37 -26.226,5.83 -5.57,-25.02 -12.508,2.79 13.262,59.63"
         style="fill:#231f20;fill-opacity:1;fill-rule:nonzero;stroke:none"
         id="path87"
         inkscape:connector-curvature="0" /><path
         d="m 940.664,1303.56 c -5.891,-3.04 -12.969,-3.18 -21.262,-0.42 -8.277,2.77 -13.863,7.14 -16.726,13.11 -4.035,7.5 -4.305,16.45 -0.832,26.86 3.547,10.62 9.14,17.61 16.789,20.97 5.887,3.05 12.969,3.19 21.258,0.42 8.281,-2.76 13.867,-7.13 16.742,-13.11 4.07,-7.27 4.332,-16.22 0.789,-26.84 -3.477,-10.41 -9.063,-17.4 -16.758,-20.99 z m -4.617,11.43 c 3.973,2.58 7.047,7.12 9.215,13.62 2.16,6.47 2.433,11.94 0.801,16.41 -1.622,4.47 -4.825,7.5 -9.598,9.1 -4.777,1.59 -9.168,1.1 -13.195,-1.48 -4.012,-2.56 -7.106,-7.1 -9.274,-13.59 -2.168,-6.5 -2.414,-11.98 -0.754,-16.45 1.672,-4.47 4.891,-7.5 9.668,-9.09 4.774,-1.6 9.149,-1.1 13.137,1.48"
         style="fill:#231f20;fill-opacity:1;fill-rule:nonzero;stroke:none"
         id="path89"
         inkscape:connector-curvature="0" /><path
         d="m 1020.37,1327.96 c 1.64,-1.82 2.77,-3.92 3.41,-6.28 0.52,-1.95 0.74,-3.94 0.64,-5.97 -0.1,-2.02 -0.66,-4.12 -1.67,-6.31 -1.21,-2.64 -3.08,-4.92 -5.58,-6.85 -2.51,-1.94 -5.54,-2.72 -9.09,-2.36 2.08,-2.22 3.21,-4.51 3.39,-6.91 0.19,-2.4 -0.62,-5.55 -2.42,-9.45 l -1.74,-3.74 c -1.17,-2.55 -1.86,-4.32 -2.09,-5.32 -0.36,-1.58 -0.14,-2.96 0.65,-4.15 l -0.65,-1.4 -12.74,5.89 c 0.227,1.39 0.442,2.5 0.633,3.33 0.434,1.7 1.008,3.37 1.739,5.02 l 2.316,5.21 c 1.59,3.58 2.082,6.23 1.445,7.96 -0.636,1.73 -2.578,3.35 -5.82,4.84 l -11.375,5.26 -10.09,-21.85 -11.348,5.25 25.684,55.6 26.596,-12.29 c 3.76,-1.83 6.47,-3.65 8.11,-5.48 z m -27.811,2.88 -6.887,-14.89 12.519,-5.78 c 2.489,-1.16 4.489,-1.72 6.019,-1.69 2.68,0.04 4.75,1.61 6.18,4.72 1.55,3.36 1.53,6.1 -0.06,8.25 -0.9,1.2 -2.54,2.35 -4.93,3.46 l -12.841,5.93"
         style="fill:#231f20;fill-opacity:1;fill-rule:nonzero;stroke:none"
         id="path91"
         inkscape:connector-curvature="0" /><path
         d="m 1084.76,1293.74 15.67,-9.53 -31.79,-52.35 -10.14,6.17 21.5,35.41 c 0.61,1.01 1.5,2.44 2.63,4.26 1.14,1.82 2.01,3.22 2.62,4.22 l -36.58,-37.93 -10.6,6.44 16.85,49.9 c -0.6,-0.99 -1.46,-2.42 -2.54,-4.27 -1.09,-1.85 -1.95,-3.28 -2.57,-4.3 l -21.5,-35.4 -10.15,6.16 31.79,52.35 15.86,-9.63 -15.49,-46.94 34.44,35.44"
         style="fill:#231f20;fill-opacity:1;fill-rule:nonzero;stroke:none"
         id="path93"
         inkscape:connector-curvature="0" /><path
         d="m 1132.21,1260.8 11.54,-8.92 -20.41,-61.65 -10.95,8.47 4.49,12.32 -17.83,13.8 -10.9,-7.37 -10.66,8.25 z m -23.89,-29.72 12.37,-9.57 8.67,23.79 z"
         style="fill:#231f20;fill-opacity:1;fill-rule:nonzero;stroke:none"
         id="path95"
         inkscape:connector-curvature="0" /><path
         d="m 1202.16,1200.38 -7.24,-7.79 -13.5,12.55 -34.46,-37.09 -9.39,8.73 34.46,37.08 -13.51,12.56 7.24,7.78 36.4,-33.82"
         style="fill:#231f20;fill-opacity:1;fill-rule:nonzero;stroke:none"
         id="path97"
         inkscape:connector-curvature="0" /><path
         d="m 1176.54,1137.93 -8.75,9.37 44.74,41.82 8.75,-9.36 -44.74,-41.83"
         style="fill:#231f20;fill-opacity:1;fill-rule:nonzero;stroke:none"
         id="path99"
         inkscape:connector-curvature="0" /><path
         d="m 1221.7,1092.27 c -6.6,0.67 -12.61,4.43 -18.03,11.28 -5.42,6.85 -7.69,13.56 -6.83,20.13 0.73,8.48 5.39,16.12 14.01,22.93 8.78,6.95 17.28,9.73 25.53,8.36 6.59,-0.67 12.6,-4.43 18.02,-11.28 5.42,-6.85 7.7,-13.56 6.84,-20.13 -0.58,-8.32 -5.26,-15.95 -14.03,-22.9 -8.62,-6.81 -17.11,-9.61 -25.51,-8.39 z m 2.38,12.09 c 4.75,-0.02 9.81,2.1 15.18,6.35 5.34,4.23 8.56,8.67 9.65,13.29 1.08,4.64 0.06,8.93 -3.06,12.87 -3.13,3.95 -7.07,5.95 -11.85,6 -4.76,0.04 -9.83,-2.06 -15.2,-6.31 -5.37,-4.25 -8.59,-8.7 -9.63,-13.35 -1.06,-4.66 -0.02,-8.96 3.1,-12.9 3.13,-3.95 7.07,-5.93 11.81,-5.95"
         style="fill:#231f20;fill-opacity:1;fill-rule:nonzero;stroke:none"
         id="path101"
         inkscape:connector-curvature="0" /><path
         d="m 1282.3,1103.16 7.06,-11.31 -23.34,-42.71 35.98,22.49 6.29,-10.08 -51.94,-32.45 -6.74,10.79 23.67,43.63 -36.64,-22.89 -6.29,10.07 51.95,32.46"
         style="fill:#231f20;fill-opacity:1;fill-rule:nonzero;stroke:none"
         id="path103"
         inkscape:connector-curvature="0" /><path
         d="m 1285.01,1015.09 c -2.33,-1.57 -3.87,-3.18 -4.6,-4.81 -1.33,-2.97 -0.89,-6.73 1.35,-11.276 1.33,-2.727 2.71,-4.789 4.14,-6.195 2.7,-2.664 5.61,-3.239 8.7,-1.723 1.81,0.883 2.81,2.355 3.03,4.426 0.18,2.054 -0.19,4.978 -1.13,8.778 l -1.58,6.5 c -1.54,6.38 -2.1,11.06 -1.68,14.03 0.68,5 3.7,8.82 9.08,11.46 4.91,2.4 9.87,2.59 14.88,0.57 5.01,-2.02 9.23,-6.53 12.68,-13.53 2.85,-5.85 3.76,-11.59 2.72,-17.22 -1.05,-5.63 -4.44,-9.975 -10.18,-13.037 l -5.43,11.077 c 3.21,1.82 4.84,4.44 4.89,7.85 0.02,2.26 -0.62,4.75 -1.94,7.45 -1.48,3 -3.24,5.11 -5.31,6.31 -2.07,1.21 -4.17,1.3 -6.3,0.25 -1.95,-0.96 -2.99,-2.56 -3.08,-4.8 -0.09,-1.45 0.34,-4.24 1.29,-8.35 l 2.42,-10.67 c 1.07,-4.68 1.29,-8.481 0.66,-11.399 -0.98,-4.531 -3.9,-8 -8.78,-10.39 -5.01,-2.453 -10.12,-2.559 -15.31,-0.317 -5.21,2.235 -9.53,6.883 -12.98,13.93 -3.53,7.196 -4.67,13.656 -3.42,19.376 1.24,5.73 4.73,10 10.44,12.8 l 5.44,-11.09"
         style="fill:#231f20;fill-opacity:1;fill-rule:nonzero;stroke:none"
         id="path105"
         inkscape:connector-curvature="0" /><path
         d="m 1362.71,940.473 -9.95,-3.75 -6.51,17.25 -47.36,-17.871 -4.53,11.988 47.37,17.871 -6.51,17.254 9.95,3.75 17.54,-46.492"
         style="fill:#231f20;fill-opacity:1;fill-rule:nonzero;stroke:none"
         id="path107"
         inkscape:connector-curvature="0" /><path
         d="m 1368.87,878.727 -8.3,30.449 -12.52,-3.41 7.6,-27.891 -10.25,-2.793 -7.6,27.887 -15.22,-4.153 8.71,-31.957 -10.56,-2.875 -11.99,44.02 59.09,16.105 11.58,-42.507 -10.54,-2.875"
         style="fill:#231f20;fill-opacity:1;fill-rule:nonzero;stroke:none"
         id="path109"
         inkscape:connector-curvature="0" /><path
         d="m 1384.23,859.887 2.04,-12.332 -24.93,-4.125 28.8,-19.254 2.7,-16.278 -28.96,20.68 -31.26,-31.953 -2.68,16.195 23.31,23.004 -7.2,5.074 -20.2,-3.343 -2.04,12.328 60.42,10.004"
         style="fill:#231f20;fill-opacity:1;fill-rule:nonzero;stroke:none"
         id="path111"
         inkscape:connector-curvature="0" /><path
         d="m 1394.63,789.672 0.77,-13.309 -40.98,-26.273 42.37,2.461 0.69,-11.852 -61.14,-3.562 -0.75,12.707 41.71,26.929 -43.13,-2.511 -0.69,11.855 61.15,3.555"
         style="fill:#231f20;fill-opacity:1;fill-rule:nonzero;stroke:none"
         id="path113"
         inkscape:connector-curvature="0" /><path
         d="m 1335.69,709.227 0.24,12.816 61.24,-1.105 -0.24,-12.813 -61.24,1.102"
         style="fill:#231f20;fill-opacity:1;fill-rule:nonzero;stroke:none"
         id="path115"
         inkscape:connector-curvature="0" /><path
         d="m 1396.43,687.266 -1.18,-12.442 -25.15,2.383 22.93,-25.977 -1.57,-16.425 -22.7,27.39 -38.39,-22.898 1.54,16.348 28.42,16.269 -5.65,6.746 -20.4,1.934 1.18,12.441 60.97,-5.769"
         style="fill:#231f20;fill-opacity:1;fill-rule:nonzero;stroke:none"
         id="path117"
         inkscape:connector-curvature="0" /><path
         d="M 1439.17,727.082 C 1439.17,333.816 1120.35,15 727.082,15 333.816,15 15,333.816 15,727.082 c 0,393.268 318.816,712.088 712.082,712.088 393.268,0 712.088,-318.82 712.088,-712.088 z"
         style="fill:none;stroke:#231f20;stroke-width:30;stroke-linecap:butt;stroke-linejoin:miter;stroke-miterlimit:4;stroke-dasharray:none;stroke-opacity:1"
         id="path119"
         inkscape:connector-curvature="0" /><path
         d="m 115.824,560.684 c -1.215,-2.098 -3.101,-3.489 -5.664,-4.161 -2.558,-0.664 -4.898,-0.39 -7.015,0.84 -2.122,1.223 -3.5122,3.114 -4.1802,5.672 -0.6718,2.559 -0.3906,4.895 0.8555,7.004 1.2427,2.109 3.1487,3.496 5.7067,4.172 2.559,0.672 4.883,0.387 6.973,-0.844 2.09,-1.238 3.477,-3.133 4.145,-5.691 0.675,-2.559 0.398,-4.895 -0.821,-6.992"
         style="fill:#231f20;fill-opacity:1;fill-rule:nonzero;stroke:none"
         id="path121"
         inkscape:connector-curvature="0" /><path
         d="m 148.84,515.066 c 6.492,-2.691 11.148,-7.578 13.976,-14.628 3.774,-9.43 3.403,-17.594 -1.121,-24.469 -2.562,-3.821 -5.582,-6.535 -9.054,-8.125 l -4.758,11.89 c 2.414,1.836 4.086,3.625 5.004,5.356 1.625,3.094 1.609,6.695 -0.039,10.828 -1.684,4.199 -4.754,6.824 -9.2,7.859 -4.449,1.036 -9.851,0.278 -16.21,-2.273 -6.364,-2.539 -10.622,-5.723 -12.766,-9.539 -2.149,-3.82 -2.438,-7.699 -0.863,-11.621 1.617,-4.035 4.214,-6.555 7.796,-7.582 1.946,-0.574 4.536,-0.664 7.793,-0.25 l 4.762,-11.899 c -6.586,-1.465 -12.652,-0.879 -18.195,1.739 -5.539,2.628 -9.617,7.199 -12.227,13.711 -3.226,8.07 -3.152,15.449 0.231,22.16 3.41,6.718 9.687,11.906 18.84,15.578 9.898,3.953 18.57,4.383 26.031,1.265"
         style="fill:#231f20;fill-opacity:1;fill-rule:nonzero;stroke:none"
         id="path123"
         inkscape:connector-curvature="0" /><path
         d="m 123.063,435.066 54.179,28.575 5.973,-11.336 -20.594,-10.86 10.93,-20.73 20.594,10.855 5.976,-11.328 -54.18,-28.562 -5.976,11.328 24.191,12.754 -10.933,20.73 -24.184,-12.754 -5.976,11.328"
         style="fill:#231f20;fill-opacity:1;fill-rule:nonzero;stroke:none"
         id="path125"
         inkscape:connector-curvature="0" /><path
         d="m 217.582,392.813 8.117,-12.11 -38.883,-52.012 -7.707,11.504 8.164,10.274 -12.543,18.719 -12.675,-3.536 -7.5,11.203 z m -32.074,-20.618 8.707,-12.996 15.75,19.824 z"
         style="fill:#231f20;fill-opacity:1;fill-rule:nonzero;stroke:none"
         id="path127"
         inkscape:connector-curvature="0" /><path
         d="m 244.469,354.465 8.133,-9.895 -38.864,-31.953 19.254,-23.418 -8.445,-6.941 -27.387,33.308 47.309,38.899"
         style="fill:#231f20;fill-opacity:1;fill-rule:nonzero;stroke:none"
         id="path129"
         inkscape:connector-curvature="0" /><path
         d="m 308.5,283.867 13.078,-12.871 -42.949,-43.66 -8.469,8.328 29.055,29.531 c 0.832,0.852 2.012,2.032 3.539,3.535 1.523,1.516 2.695,2.688 3.512,3.516 l -44.297,-28.527 -8.848,8.703 27.856,44.707 c -0.821,-0.828 -1.973,-2.024 -3.457,-3.574 -1.485,-1.551 -2.645,-2.746 -3.481,-3.594 l -29.055,-29.531 -8.461,8.32 42.95,43.664 13.226,-13.012 -25.844,-42.129 41.645,26.594"
         style="fill:#231f20;fill-opacity:1;fill-rule:nonzero;stroke:none"
         id="path131"
         inkscape:connector-curvature="0" /><path
         d="m 360.859,225.605 -24.765,19.563 -8.043,-10.18 22.687,-17.918 -6.59,-8.34 -22.679,17.918 -9.785,-12.382 25.992,-20.528 -6.778,-8.582 -35.8,28.282 37.968,48.058 34.571,-27.316 -6.778,-8.575"
         style="fill:#231f20;fill-opacity:1;fill-rule:nonzero;stroke:none"
         id="path133"
         inkscape:connector-curvature="0" /><path
         d="m 412.113,202.898 c 1.379,-2.027 2.223,-4.257 2.532,-6.687 0.257,-2 0.199,-4.004 -0.176,-5.988 -0.379,-1.993 -1.211,-4.004 -2.512,-6.035 -1.562,-2.45 -3.719,-4.454 -6.465,-6.036 -2.746,-1.57 -5.855,-1.941 -9.32,-1.101 1.758,-2.469 2.566,-4.914 2.426,-7.305 -0.141,-2.394 -1.368,-5.41 -3.684,-9.031 l -2.219,-3.481 c -1.515,-2.351 -2.441,-4.019 -2.793,-4.976 -0.57,-1.516 -0.55,-2.914 0.075,-4.203 l -0.832,-1.297 -11.825,7.558 c 0.41,1.36 0.77,2.422 1.082,3.211 0.649,1.633 1.446,3.215 2.399,4.746 l 3.004,4.848 c 2.058,3.328 2.894,5.887 2.504,7.684 -0.395,1.804 -2.094,3.672 -5.106,5.593 l -10.558,6.75 -12.965,-20.273 -10.528,6.727 32.985,51.613 24.683,-15.781 c 3.485,-2.325 5.91,-4.504 7.293,-6.536 z m -27.168,6.633 -8.832,-13.828 11.621,-7.433 c 2.305,-1.473 4.215,-2.301 5.727,-2.477 2.668,-0.324 4.922,0.945 6.769,3.836 1.993,3.117 2.344,5.84 1.055,8.176 -0.73,1.316 -2.199,2.683 -4.414,4.097 l -11.926,7.629"
         style="fill:#231f20;fill-opacity:1;fill-rule:nonzero;stroke:none"
         id="path135"
         inkscape:connector-curvature="0" /><path
         d="m 423.668,149.551 c -0.914,-2.656 -1.172,-4.856 -0.777,-6.602 0.726,-3.183 3.343,-5.906 7.863,-8.203 2.703,-1.367 5.047,-2.187 7.035,-2.449 3.77,-0.5 6.434,0.789 7.992,3.855 0.907,1.797 0.824,3.575 -0.25,5.36 -1.09,1.758 -3.152,3.859 -6.187,6.332 l -5.168,4.238 c -5.074,4.168 -8.34,7.566 -9.785,10.191 -2.473,4.407 -2.356,9.282 0.351,14.622 2.469,4.871 6.317,8.007 11.543,9.414 5.219,1.398 11.309,0.339 18.262,-3.196 5.805,-2.937 9.984,-6.972 12.539,-12.097 2.551,-5.129 2.461,-10.645 -0.281,-16.536 l -11.004,5.579 c 1.461,3.379 1.191,6.453 -0.817,9.207 -1.343,1.828 -3.351,3.418 -6.035,4.777 -2.984,1.512 -5.664,2.129 -8.039,1.855 -2.387,-0.285 -4.109,-1.484 -5.183,-3.593 -0.985,-1.953 -0.844,-3.848 0.425,-5.696 0.805,-1.211 2.821,-3.171 6.055,-5.894 l 8.363,-7.063 c 3.668,-3.086 6.129,-5.996 7.391,-8.703 1.945,-4.207 1.691,-8.73 -0.77,-13.582 -2.519,-4.972 -6.531,-8.125 -12.035,-9.472 -5.496,-1.34 -11.746,-0.235 -18.746,3.32 -7.152,3.625 -11.953,8.094 -14.398,13.418 -2.446,5.324 -2.231,10.82 0.644,16.504 l 11.012,-5.586"
         style="fill:#231f20;fill-opacity:1;fill-rule:nonzero;stroke:none"
         id="path137"
         inkscape:connector-curvature="0" /><path
         d="m 555.992,140.422 -3.445,-10.051 -17.442,5.977 -16.417,-47.8792 -12.122,4.1484 16.422,47.8908 -17.441,5.976 3.449,10.047 46.996,-16.109"
         style="fill:#231f20;fill-opacity:1;fill-rule:nonzero;stroke:none"
         id="path139"
         inkscape:connector-curvature="0" /><path
         d="m 606.59,116.66 -30.688,7.383 -3.031,-12.609 28.106,-6.754 -2.485,-10.3362 -28.105,6.7582 -3.692,-15.3403 32.207,-7.7461 -2.558,-10.6328 -44.364,10.6719 14.329,59.5433 42.839,-10.301 -2.558,-10.637"
         style="fill:#231f20;fill-opacity:1;fill-rule:nonzero;stroke:none"
         id="path141"
         inkscape:connector-curvature="0" /><path
         d="m 624.176,124.414 12.383,-1.68 -3.387,-25.0387 26.871,21.8637 16.348,-2.215 -28.282,-21.5901 21.348,-39.2695 -16.269,2.1953 -15.125,29.043 -6.969,-5.3789 -2.746,-20.3008 -12.387,1.6758 8.215,60.6952"
         style="fill:#231f20;fill-opacity:1;fill-rule:nonzero;stroke:none"
         id="path143"
         inkscape:connector-curvature="0" /><path
         d="m 687.488,116.68 13.332,-0.391 22.59,-43.1132 1.25,42.4102 11.875,-0.352 -1.808,-61.2223 -12.723,0.375 -23.176,43.9063 -1.273,-43.1875 -11.871,0.3554 1.804,61.2191"
         style="fill:#231f20;fill-opacity:1;fill-rule:nonzero;stroke:none"
         id="path145"
         inkscape:connector-curvature="0" /><path
         d="m 766.719,55.4297 -12.801,-0.5781 -2.777,61.1834 12.793,0.586 2.785,-61.1913"
         style="fill:#231f20;fill-opacity:1;fill-rule:nonzero;stroke:none"
         id="path147"
         inkscape:connector-curvature="0" /><path
         d="m 793.602,76.3477 c 0.703,-2.7227 1.711,-4.6993 3,-5.9258 2.363,-2.2578 6.054,-3.086 11.082,-2.4922 3.019,0.3516 5.421,0.957 7.23,1.8359 3.406,1.668 4.922,4.2188 4.52,7.6367 -0.235,2 -1.289,3.4375 -3.164,4.3243 -1.887,0.8711 -4.766,1.4882 -8.653,1.8593 l -6.66,0.6719 c -6.535,0.6719 -11.133,1.711 -13.789,3.0938 -4.492,2.3047 -7.09,6.4257 -7.785,12.375 -0.633,5.4294 0.84,10.1644 4.414,14.2184 3.578,4.063 9.242,6.543 16.984,7.442 6.465,0.761 12.18,-0.293 17.141,-3.157 4.961,-2.859 7.926,-7.507 8.906,-13.933 l -12.258,-1.438 c -0.652,3.637 -2.566,6.036 -5.761,7.231 -2.129,0.781 -4.688,0.996 -7.676,0.64 -3.32,-0.386 -5.899,-1.355 -7.723,-2.898 -1.828,-1.555 -2.609,-3.508 -2.336,-5.859 0.254,-2.1683 1.426,-3.6722 3.508,-4.5121 1.336,-0.5664 4.098,-1.082 8.301,-1.5625 l 10.867,-1.2617 c 4.766,-0.5429 8.426,-1.6094 10.965,-3.1719 3.957,-2.4335 6.242,-6.3359 6.875,-11.7382 0.644,-5.5391 -0.957,-10.3907 -4.793,-14.5508 -3.848,-4.1524 -9.668,-6.6914 -17.461,-7.5977 -7.957,-0.9297 -14.434,0.1446 -19.414,3.2305 -4.981,3.0781 -7.84,7.7852 -8.582,14.1055 l 12.262,1.4336"
         style="fill:#231f20;fill-opacity:1;fill-rule:nonzero;stroke:none"
         id="path149"
         inkscape:connector-curvature="0" /><path
         d="m 838.738,124.949 12.207,2.696 5.434,-24.684 17.711,29.773 16.117,3.543 -19.133,-30 33.555,-29.5387 -16.035,-3.5235 -24.192,22.0665 -4.695,-7.4493 4.402,-20.0117 -12.207,-2.6836 -13.164,59.8123"
         style="fill:#231f20;fill-opacity:1;fill-rule:nonzero;stroke:none"
         id="path151"
         inkscape:connector-curvature="0" /><path
         d="m 917.461,144.969 13.836,4.59 39.777,-51.3285 -13.136,-4.3633 -7.723,10.6058 -21.399,-7.098 0.039,-13.1641 -12.8,-4.25 z m 11.328,-36.414 14.844,4.929 -14.914,20.473 z"
         style="fill:#231f20;fill-opacity:1;fill-rule:nonzero;stroke:none"
         id="path153"
         inkscape:connector-curvature="0" /><path
         d="m 1011.75,115.477 -27.484,54.746 11.457,5.746 10.437,-20.813 20.95,10.52 -10.44,20.808 11.44,5.743 27.48,-54.739 -11.45,-5.75 -12.26,24.442 -20.95,-10.516 12.26,-24.434 -11.44,-5.753"
         style="fill:#231f20;fill-opacity:1;fill-rule:nonzero;stroke:none"
         id="path155"
         inkscape:connector-curvature="0" /><path
         d="m 1042.93,221.379 9.18,5.934 5.35,-8.27 -9.19,-5.938 z m 68.09,-42.941 c -1.29,-6.504 -5.62,-12.122 -12.95,-16.868 -7.34,-4.734 -14.23,-6.363 -20.69,-4.882 -8.37,1.542 -15.54,6.914 -21.49,16.132 -6.08,9.407 -8.04,18.149 -5.88,26.223 1.29,6.496 5.6,12.121 12.94,16.855 7.34,4.747 14.24,6.368 20.69,4.883 8.22,-1.367 15.38,-6.75 21.46,-16.152 5.95,-9.219 7.93,-17.949 5.92,-26.191 z m -54.06,52.011 9.19,5.938 5.35,-8.274 -9.19,-5.933 z m 42.25,-48.484 c 0.47,4.723 -1.16,9.961 -4.87,15.711 -3.71,5.722 -7.8,9.355 -12.31,10.879 -4.51,1.523 -8.88,0.918 -13.1,-1.817 -4.23,-2.734 -6.59,-6.476 -7.1,-11.222 -0.5,-4.746 1.11,-9.989 4.82,-15.743 3.72,-5.75 7.84,-9.363 12.37,-10.855 4.53,-1.488 8.92,-0.871 13.15,1.863 4.22,2.735 6.57,6.465 7.04,11.184"
         style="fill:#231f20;fill-opacity:1;fill-rule:nonzero;stroke:none"
         id="path157"
         inkscape:connector-curvature="0" /><path
         d="m 1142.49,248.895 c -3.41,2.628 -7.09,3.39 -11.04,2.296 -2.21,-0.625 -4.31,-1.75 -6.29,-3.371 -3.8,-3.113 -5.76,-7.105 -5.86,-11.98 -0.09,-4.863 2.21,-10.164 6.93,-15.918 4.75,-5.789 9.42,-8.797 14.04,-9.035 4.62,-0.235 8.62,1.027 12,3.801 3.31,2.703 5.24,5.878 5.81,9.5 0.55,3.625 -0.17,7.167 -2.19,10.636 l -11.03,-9.031 -6.44,7.848 19.69,16.144 20.81,-25.371 -6.53,-5.351 -5.76,5.175 c -0.07,-3.8 -0.49,-6.777 -1.25,-8.933 -1.31,-3.742 -3.86,-7.168 -7.67,-10.293 -6.26,-5.149 -13.18,-7.192 -20.73,-6.133 -7.74,0.934 -14.71,5.176 -20.91,12.73 -6.27,7.649 -9.19,15.5 -8.76,23.559 0.44,8.055 4.12,14.93 11.03,20.602 6,4.921 12.08,7.355 18.21,7.296 6.15,-0.058 11.34,-2.136 15.6,-6.25 l -9.66,-7.921"
         style="fill:#231f20;fill-opacity:1;fill-rule:nonzero;stroke:none"
         id="path159"
         inkscape:connector-curvature="0" /><path
         d="m 1187.67,259.012 c 2.24,-1.676 4.26,-2.594 6.04,-2.742 3.25,-0.286 6.65,1.386 10.21,4.992 2.13,2.156 3.62,4.136 4.48,5.945 1.62,3.445 1.2,6.379 -1.24,8.789 -1.44,1.418 -3.16,1.875 -5.19,1.395 -2,-0.496 -4.63,-1.825 -7.91,-3.961 l -5.6,-3.633 c -5.53,-3.567 -9.76,-5.649 -12.7,-6.223 -4.95,-1.015 -9.55,0.586 -13.82,4.785 -3.89,3.836 -5.7,8.457 -5.44,13.86 0.25,5.398 3.11,10.875 8.59,16.422 4.57,4.64 9.68,7.394 15.34,8.261 5.66,0.879 10.89,-0.886 15.67,-5.293 l -8.67,-8.789 c -2.77,2.426 -5.78,3.098 -9.01,2.024 -2.15,-0.723 -4.28,-2.149 -6.4,-4.297 -2.34,-2.371 -3.75,-4.746 -4.21,-7.09 -0.46,-2.355 0.16,-4.363 1.85,-6.027 1.56,-1.532 3.41,-1.981 5.55,-1.328 1.4,0.394 3.89,1.718 7.46,3.964 l 9.27,5.821 c 4.07,2.551 7.58,4.015 10.54,4.386 4.6,0.575 8.84,-1.046 12.7,-4.863 3.98,-3.914 5.76,-8.691 5.37,-14.347 -0.41,-5.641 -3.36,-11.258 -8.87,-16.844 -5.63,-5.711 -11.35,-8.914 -17.17,-9.629 -5.81,-0.711 -10.99,1.164 -15.51,5.633 l 8.67,8.789"
         style="fill:#231f20;fill-opacity:1;fill-rule:nonzero;stroke:none"
         id="path161"
         inkscape:connector-curvature="0" /><path
         d="m 1192.47,325.184 7.84,9.746 19.69,-15.836 -4.84,34.304 10.34,12.852 3.88,-35.371 44.66,-2 -10.29,-12.805 -32.69,2.063 1.01,-8.75 15.97,-12.844 -7.83,-9.738 -47.74,38.379"
         style="fill:#231f20;fill-opacity:1;fill-rule:nonzero;stroke:none"
         id="path163"
         inkscape:connector-curvature="0" /><path
         d="m 1304.23,385.02 c 1.51,-6.457 -0.09,-13.36 -4.81,-20.715 -4.71,-7.352 -10.31,-11.688 -16.8,-13.004 -8.26,-2.074 -17.01,-0.141 -26.24,5.781 -9.43,6.043 -14.84,13.18 -16.21,21.426 -1.52,6.453 0.08,13.355 4.8,20.711 4.71,7.351 10.32,11.687 16.81,13.008 8.06,2.168 16.79,0.222 26.22,-5.821 9.23,-5.918 14.64,-13.047 16.23,-21.386 z m -12.21,-1.68 c -1.52,4.492 -5.18,8.586 -10.93,12.285 -5.75,3.68 -10.98,5.281 -15.72,4.805 -4.74,-0.489 -8.46,-2.84 -11.17,-7.082 -2.72,-4.239 -3.32,-8.621 -1.82,-13.141 1.51,-4.531 5.15,-8.644 10.91,-12.336 5.76,-3.699 11.01,-5.281 15.76,-4.766 4.75,0.52 8.47,2.903 11.2,7.137 2.71,4.238 3.3,8.606 1.77,13.098"
         style="fill:#231f20;fill-opacity:1;fill-rule:nonzero;stroke:none"
         id="path165"
         inkscape:connector-curvature="0" /><path
         d="m 1268.45,434.52 5.79,11.425 44.86,-22.769 13.72,27.031 9.76,-4.953 -19.53,-38.457 -54.6,27.723"
         style="fill:#231f20;fill-opacity:1;fill-rule:nonzero;stroke:none"
         id="path167"
         inkscape:connector-curvature="0" /><path
         d="m 1299.14,499.891 5.3,13.586 64.9,-2.207 -5.04,-12.891 -13.09,0.832 -8.2,-20.996 10.14,-8.379 -4.91,-12.563 z m 35.24,-14.547 5.7,14.566 -25.28,1.602 z"
         style="fill:#231f20;fill-opacity:1;fill-rule:nonzero;stroke:none"
         id="path169"
         inkscape:connector-curvature="0" /><path
         d="m 1349.32,576.387 c 2.07,1.242 4.4,1.535 6.97,0.871 2.56,-0.656 4.47,-2.043 5.72,-4.145 1.26,-2.097 1.55,-4.433 0.89,-6.988 -0.65,-2.57 -2.04,-4.465 -4.15,-5.703 -2.12,-1.242 -4.45,-1.527 -7.02,-0.871 -2.56,0.664 -4.46,2.043 -5.68,4.129 -1.23,2.101 -1.51,4.433 -0.85,6.996 0.66,2.554 2.03,4.461 4.12,5.711"
         style="fill:#231f20;fill-opacity:1;fill-rule:nonzero;stroke:none"
         id="path171"
         inkscape:connector-curvature="0" /></g></g></svg>